<svg width="16" height="16" viewBox="0 0 16 16" fill="none" xmlns="http://www.w3.org/2000/svg">
<path d="M10.25 11.25C10.4481 11.2526 10.6374 11.3324 10.7775 11.4725C10.9176 11.6126 10.9974 11.8019 11 12V14C11 14.2652 10.8946 14.5196 10.7071 14.7071C10.5196 14.8946 10.2652 15 10 15H3C2.73478 15 2.48043 14.8946 2.29289 14.7071C2.10536 14.5196 2 14.2652 2 14V2C2 1.73478 2.10536 1.48043 2.29289 1.29289C2.48043 1.10536 2.73478 1 3 1H10C10.2652 1 10.5196 1.10536 10.7071 1.29289C10.8946 1.48043 11 1.73478 11 2V3.25C10.9974 3.44811 10.9176 3.63737 10.7775 3.77747C10.6374 3.91756 10.4481 3.99741 10.25 4C10.0519 3.99741 9.86263 3.91756 9.72253 3.77747C9.58244 3.63737 9.50259 3.44811 9.5 3.25V2.5H3.5V13.5H9.5V12C9.50259 11.8019 9.58244 11.6126 9.72253 11.4725C9.86263 11.3324 10.0519 11.2526 10.25 11.25ZM14 7.75C13.9997 7.63465 13.9735 7.52085 13.9233 7.417C13.8731 7.31315 13.8002 7.2219 13.71 7.15L11.78 5.22C11.6378 5.08752 11.4498 5.0154 11.2555 5.01883C11.0612 5.02225 10.8758 5.10097 10.7384 5.23838C10.601 5.37579 10.5223 5.56118 10.5188 5.75548C10.5154 5.94978 10.5875 6.13783 10.72 6.28L11.44 7H7.92C7.72109 7 7.53032 7.07902 7.38967 7.21967C7.24902 7.36032 7.17 7.55109 7.17 7.75C7.17 7.94891 7.24902 8.13968 7.38967 8.28033C7.53032 8.42098 7.72109 8.5 7.92 8.5H11.44L10.72 9.22C10.5795 9.36063 10.5007 9.55125 10.5007 9.75C10.5007 9.94875 10.5795 10.1394 10.72 10.28C10.8606 10.4205 11.0512 10.4993 11.25 10.4993C11.4488 10.4993 11.6394 10.4205 11.78 10.28L13.71 8.35C13.8002 8.2781 13.8731 8.18685 13.9233 8.083C13.9735 7.97915 13.9997 7.86535 14 7.75Z" fill="#505662"/>
</svg>
