<svg width="16" height="16" viewBox="0 0 16 16" fill="none" xmlns="http://www.w3.org/2000/svg">
<path d="M7.98005 6.5C8.27599 6.5 8.56529 6.58797 8.81136 6.7528C9.05743 6.91762 9.24922 7.15189 9.36247 7.42597C9.47572 7.70006 9.50535 8.00166 9.44762 8.29264C9.38988 8.58361 9.24737 8.85088 9.03811 9.06066C8.82884 9.27044 8.56223 9.4133 8.27197 9.47118C7.98171 9.52906 7.68085 9.49935 7.40743 9.38582C7.13402 9.27229 6.90032 9.08003 6.7359 8.83335C6.57149 8.58668 6.48373 8.29667 6.48373 8C6.48373 7.60218 6.64138 7.22064 6.92199 6.93934C7.20261 6.65804 7.5832 6.5 7.98005 6.5ZM7.98005 5C7.38816 5 6.80956 5.17595 6.31743 5.50559C5.82529 5.83524 5.44172 6.30377 5.21521 6.85195C4.9887 7.40013 4.92944 8.00333 5.04491 8.58527C5.16038 9.16721 5.4454 9.70176 5.86393 10.1213C6.28246 10.5409 6.8157 10.8266 7.39621 10.9424C7.97673 11.0581 8.57845 10.9987 9.12528 10.7716C9.67212 10.5446 10.1395 10.1601 10.4683 9.66671C10.7972 9.17336 10.9727 8.59334 10.9727 8C10.9727 7.20435 10.6574 6.44129 10.0962 5.87868C9.53494 5.31607 8.77375 5 7.98005 5ZM8.65838 2.5C8.86958 3.16139 9.28474 3.73851 9.84406 4.14825C10.4034 4.55798 11.078 4.77919 11.7707 4.78C12.0229 4.78089 12.2741 4.75066 12.5189 4.69L13.1773 5.8C12.6204 6.39657 12.3107 7.18301 12.3107 8C12.3107 8.81699 12.6204 9.60343 13.1773 10.2L12.5189 11.31C12.2741 11.2493 12.0229 11.2191 11.7707 11.22C11.078 11.2208 10.4034 11.442 9.84406 11.8518C9.28474 12.2615 8.86958 12.8386 8.65838 13.5H7.30172C7.09052 12.8386 6.67536 12.2615 6.11604 11.8518C5.55673 11.442 4.88211 11.2208 4.18937 11.22C3.93724 11.2191 3.68597 11.2493 3.44121 11.31L2.78283 10.2C3.33965 9.60343 3.64944 8.81699 3.64944 8C3.64944 7.18301 3.33965 6.39657 2.78283 5.8L3.44121 4.69C3.68597 4.75066 3.93724 4.78089 4.18937 4.78C4.88211 4.77919 5.55673 4.55798 6.11604 4.14825C6.67536 3.73851 7.09052 3.16139 7.30172 2.5H8.65838ZM9.45642 1H6.46378C6.33155 1.01913 6.21053 1.08513 6.12268 1.18604C6.03483 1.28695 5.98597 1.41607 5.98495 1.55C5.98376 1.78279 5.93597 2.01298 5.84443 2.22693C5.75289 2.44088 5.61945 2.63424 5.45202 2.79555C5.28459 2.95687 5.08656 3.08287 4.86968 3.16608C4.6528 3.24929 4.42146 3.28803 4.18937 3.28C3.87736 3.26524 3.57468 3.1687 3.31153 3C3.20747 2.96828 3.09637 2.96828 2.99231 3C2.89491 3.00094 2.79927 3.0261 2.71396 3.07323C2.62865 3.12035 2.55634 3.18796 2.50351 3.27L1.07702 5.76C1.0398 5.82206 1.01541 5.891 1.0053 5.9627C0.995191 6.03441 0.999575 6.10742 1.01819 6.17739C1.0368 6.24737 1.06927 6.31287 1.11365 6.37001C1.15803 6.42715 1.21342 6.47476 1.27653 6.51C1.54773 6.655 1.77452 6.87115 1.93266 7.13536C2.09079 7.39956 2.17432 7.70189 2.17432 8.01C2.17432 8.31811 2.09079 8.62044 1.93266 8.88464C1.77452 9.14885 1.54773 9.36501 1.27653 9.51C1.21342 9.54524 1.15803 9.59285 1.11365 9.64999C1.06927 9.70713 1.0368 9.77263 1.01819 9.84261C0.999575 9.91258 0.995191 9.98559 1.0053 10.0573C1.01541 10.129 1.0398 10.1979 1.07702 10.26L2.54342 12.78C2.59756 12.8474 2.66584 12.9021 2.74342 12.9401C2.821 12.9781 2.90597 12.9986 2.99231 13C3.09637 13.0317 3.20747 13.0317 3.31153 13C3.57856 12.8454 3.88099 12.7627 4.18937 12.76C4.41816 12.752 4.64626 12.7894 4.86055 12.8702C5.07485 12.9509 5.27109 13.0733 5.43798 13.2304C5.60488 13.3875 5.73913 13.5761 5.833 13.7854C5.92687 13.9947 5.97852 14.2206 5.98495 14.45C5.98757 14.5968 6.04758 14.7367 6.15206 14.8395C6.25654 14.9424 6.39714 15 6.54358 15H9.53622C9.68267 15 9.82327 14.9424 9.92775 14.8395C10.0322 14.7367 10.0922 14.5968 10.0948 14.45C10.0961 14.2206 10.1427 13.9938 10.2317 13.7826C10.3208 13.5713 10.4506 13.3798 10.6138 13.219C10.777 13.0582 10.9702 12.9314 11.1825 12.8457C11.3947 12.7601 11.6218 12.7174 11.8505 12.72C12.1589 12.7227 12.4613 12.8054 12.7284 12.96C12.8042 12.9911 12.886 13.0048 12.9678 13C13.0652 12.9991 13.1608 12.9739 13.2461 12.9268C13.3314 12.8796 13.4038 12.812 13.4566 12.73L14.923 10.21C14.9602 10.1479 14.9846 10.079 14.9947 10.0073C15.0048 9.93559 15.0004 9.86258 14.9818 9.79261C14.9632 9.72263 14.9307 9.65713 14.8864 9.59999C14.842 9.54285 14.7866 9.49524 14.7235 9.46C14.4523 9.31501 14.2255 9.09885 14.0673 8.83464C13.9092 8.57044 13.8257 8.26811 13.8257 7.96C13.8257 7.65189 13.9092 7.34956 14.0673 7.08536C14.2255 6.82115 14.4523 6.605 14.7235 6.46C14.7866 6.42476 14.842 6.37715 14.8864 6.32001C14.9307 6.26287 14.9632 6.19737 14.9818 6.12739C15.0004 6.05742 15.0048 5.98441 14.9947 5.9127C14.9846 5.841 14.9602 5.77206 14.923 5.71L13.4167 3.24C13.3645 3.16888 13.2971 3.1104 13.2194 3.06887C13.1417 3.02733 13.0558 3.0038 12.9678 3C12.8701 2.99799 12.7737 3.02216 12.6885 3.07C12.4214 3.22465 12.119 3.30733 11.8106 3.31C11.5728 3.32375 11.3346 3.28825 11.111 3.20572C10.8874 3.12319 10.6831 2.99539 10.5109 2.83028C10.3388 2.66517 10.2023 2.4663 10.1101 2.24603C10.018 2.02577 9.97201 1.78884 9.97514 1.55C9.973 1.40989 9.91854 1.27567 9.82251 1.17385C9.72647 1.07202 9.59585 1.00999 9.45642 1Z" fill="#505662"/>
</svg>
